<mxfile host="app.diagrams.net" modified="2024-06-03T12:24:43.464Z" agent="Mozilla/5.0 (Macintosh; Intel Mac OS X 10_15_7) AppleWebKit/537.36 (KHTML, like Gecko) Chrome/125.0.0.0 Safari/537.36" etag="ks0bJaN0vJXdmMVWEktj" version="24.4.0" type="github">
  <diagram name="第 1 页" id="Gib-W4XltK8WXEup0tGj">
    <mxGraphModel dx="1307" dy="886" grid="1" gridSize="10" guides="1" tooltips="1" connect="1" arrows="1" fold="1" page="1" pageScale="1" pageWidth="827" pageHeight="1169" math="0" shadow="0">
      <root>
        <mxCell id="0" />
        <mxCell id="1" parent="0" />
        <mxCell id="h236lsH5lbyxZkUIFy6G-6" value="" style="rounded=1;whiteSpace=wrap;html=1;" vertex="1" parent="1">
          <mxGeometry x="368" y="200" width="290" height="220" as="geometry" />
        </mxCell>
        <mxCell id="h236lsH5lbyxZkUIFy6G-5" value="" style="rounded=1;whiteSpace=wrap;html=1;" vertex="1" parent="1">
          <mxGeometry x="30" y="200" width="290" height="220" as="geometry" />
        </mxCell>
        <mxCell id="h236lsH5lbyxZkUIFy6G-1" value="&lt;h3 style=&quot;font-size: 17px;&quot;&gt;&lt;font style=&quot;font-size: 17px;&quot;&gt;媒体平台&lt;/font&gt;&lt;/h3&gt;&lt;div style=&quot;&quot;&gt;&lt;font style=&quot;font-size: 15px;&quot;&gt;渠道前端流量/广告数据&lt;/font&gt;&lt;/div&gt;" style="rounded=1;whiteSpace=wrap;html=1;" vertex="1" parent="1">
          <mxGeometry x="50" y="220" width="250" height="80" as="geometry" />
        </mxCell>
        <mxCell id="h236lsH5lbyxZkUIFy6G-2" value="&lt;h3 style=&quot;font-size: 17px;&quot;&gt;&lt;font style=&quot;font-size: 17px;&quot;&gt;JD平台&lt;/font&gt;&lt;/h3&gt;&lt;div style=&quot;&quot;&gt;&lt;font style=&quot;font-size: 15px;&quot;&gt;渠道后端转化数据&lt;/font&gt;&lt;/div&gt;" style="rounded=1;whiteSpace=wrap;html=1;" vertex="1" parent="1">
          <mxGeometry x="391" y="220" width="250" height="80" as="geometry" />
        </mxCell>
        <mxCell id="h236lsH5lbyxZkUIFy6G-3" value="&lt;h3 style=&quot;&quot;&gt;&lt;font style=&quot;font-size: 16px;&quot;&gt;分渠道的UV流量、Install，分计划的广告展示、点击、花费数据&lt;/font&gt;&lt;/h3&gt;" style="rounded=1;whiteSpace=wrap;html=1;" vertex="1" parent="1">
          <mxGeometry x="50" y="320" width="250" height="80" as="geometry" />
        </mxCell>
        <mxCell id="h236lsH5lbyxZkUIFy6G-4" value="&lt;h3 style=&quot;&quot;&gt;&lt;font style=&quot;font-size: 16px;&quot;&gt;注册、订单、GMV、留存、流失等数据&lt;/font&gt;&lt;/h3&gt;" style="rounded=1;whiteSpace=wrap;html=1;" vertex="1" parent="1">
          <mxGeometry x="391" y="320" width="250" height="80" as="geometry" />
        </mxCell>
        <mxCell id="h236lsH5lbyxZkUIFy6G-7" value="" style="shape=flexArrow;endArrow=classic;html=1;rounded=0;entryX=0.003;entryY=0.586;entryDx=0;entryDy=0;entryPerimeter=0;" edge="1" parent="1">
          <mxGeometry width="50" height="50" relative="1" as="geometry">
            <mxPoint x="326" y="313" as="sourcePoint" />
            <mxPoint x="364.8699999999999" y="311.9200000000001" as="targetPoint" />
          </mxGeometry>
        </mxCell>
        <mxCell id="h236lsH5lbyxZkUIFy6G-14" value="" style="edgeStyle=orthogonalEdgeStyle;rounded=0;orthogonalLoop=1;jettySize=auto;html=1;" edge="1" parent="1" source="h236lsH5lbyxZkUIFy6G-10" target="h236lsH5lbyxZkUIFy6G-13">
          <mxGeometry relative="1" as="geometry" />
        </mxCell>
        <mxCell id="h236lsH5lbyxZkUIFy6G-10" value="订单号" style="rounded=0;whiteSpace=wrap;html=1;fontSize=16;" vertex="1" parent="1">
          <mxGeometry x="300" y="620" width="150" height="60" as="geometry" />
        </mxCell>
        <mxCell id="h236lsH5lbyxZkUIFy6G-16" value="" style="edgeStyle=orthogonalEdgeStyle;rounded=0;orthogonalLoop=1;jettySize=auto;html=1;" edge="1" parent="1" source="h236lsH5lbyxZkUIFy6G-13" target="h236lsH5lbyxZkUIFy6G-15">
          <mxGeometry relative="1" as="geometry" />
        </mxCell>
        <mxCell id="h236lsH5lbyxZkUIFy6G-45" style="edgeStyle=orthogonalEdgeStyle;rounded=0;orthogonalLoop=1;jettySize=auto;html=1;entryX=0.5;entryY=0;entryDx=0;entryDy=0;" edge="1" parent="1" source="h236lsH5lbyxZkUIFy6G-13" target="h236lsH5lbyxZkUIFy6G-28">
          <mxGeometry relative="1" as="geometry" />
        </mxCell>
        <mxCell id="h236lsH5lbyxZkUIFy6G-13" value="&lt;font style=&quot;font-size: 16px;&quot;&gt;直接订单？&lt;/font&gt;" style="rhombus;whiteSpace=wrap;html=1;" vertex="1" parent="1">
          <mxGeometry x="295" y="730" width="160" height="80" as="geometry" />
        </mxCell>
        <mxCell id="h236lsH5lbyxZkUIFy6G-19" value="" style="edgeStyle=orthogonalEdgeStyle;rounded=0;orthogonalLoop=1;jettySize=auto;html=1;" edge="1" parent="1" source="h236lsH5lbyxZkUIFy6G-15" target="h236lsH5lbyxZkUIFy6G-18">
          <mxGeometry relative="1" as="geometry" />
        </mxCell>
        <mxCell id="h236lsH5lbyxZkUIFy6G-15" value="订单日志抽取渠道" style="rounded=0;whiteSpace=wrap;html=1;fontSize=16;" vertex="1" parent="1">
          <mxGeometry x="300" y="860" width="150" height="60" as="geometry" />
        </mxCell>
        <mxCell id="h236lsH5lbyxZkUIFy6G-17" value="是" style="text;html=1;align=center;verticalAlign=middle;whiteSpace=wrap;rounded=0;fontSize=16;" vertex="1" parent="1">
          <mxGeometry x="320" y="820" width="60" height="30" as="geometry" />
        </mxCell>
        <mxCell id="h236lsH5lbyxZkUIFy6G-21" value="" style="edgeStyle=orthogonalEdgeStyle;rounded=0;orthogonalLoop=1;jettySize=auto;html=1;" edge="1" parent="1" source="h236lsH5lbyxZkUIFy6G-18" target="h236lsH5lbyxZkUIFy6G-20">
          <mxGeometry relative="1" as="geometry" />
        </mxCell>
        <mxCell id="h236lsH5lbyxZkUIFy6G-26" style="edgeStyle=orthogonalEdgeStyle;rounded=0;orthogonalLoop=1;jettySize=auto;html=1;entryX=0.5;entryY=0;entryDx=0;entryDy=0;" edge="1" parent="1" source="h236lsH5lbyxZkUIFy6G-18" target="h236lsH5lbyxZkUIFy6G-24">
          <mxGeometry relative="1" as="geometry" />
        </mxCell>
        <mxCell id="h236lsH5lbyxZkUIFy6G-18" value="&lt;font style=&quot;font-size: 16px;&quot;&gt;渠道cookie&lt;/font&gt;&lt;div&gt;&lt;font style=&quot;font-size: 16px;&quot;&gt;是否在有效期？&lt;/font&gt;&lt;/div&gt;" style="rhombus;whiteSpace=wrap;html=1;" vertex="1" parent="1">
          <mxGeometry x="295" y="970" width="160" height="80" as="geometry" />
        </mxCell>
        <mxCell id="h236lsH5lbyxZkUIFy6G-20" value="全部GMV归属订单日志中的渠道" style="rounded=0;whiteSpace=wrap;html=1;fontSize=16;" vertex="1" parent="1">
          <mxGeometry x="300" y="1100" width="150" height="60" as="geometry" />
        </mxCell>
        <mxCell id="h236lsH5lbyxZkUIFy6G-22" value="是" style="text;html=1;align=center;verticalAlign=middle;whiteSpace=wrap;rounded=0;fontSize=16;" vertex="1" parent="1">
          <mxGeometry x="320" y="1060" width="60" height="30" as="geometry" />
        </mxCell>
        <mxCell id="h236lsH5lbyxZkUIFy6G-23" value="否" style="text;html=1;align=center;verticalAlign=middle;whiteSpace=wrap;rounded=0;fontSize=16;" vertex="1" parent="1">
          <mxGeometry x="230" y="980" width="60" height="30" as="geometry" />
        </mxCell>
        <mxCell id="h236lsH5lbyxZkUIFy6G-24" value="全部GMV归属直接流量" style="rounded=0;whiteSpace=wrap;html=1;fontSize=16;" vertex="1" parent="1">
          <mxGeometry x="110" y="1100" width="150" height="60" as="geometry" />
        </mxCell>
        <mxCell id="h236lsH5lbyxZkUIFy6G-27" value="否" style="text;html=1;align=center;verticalAlign=middle;whiteSpace=wrap;rounded=0;fontSize=16;" vertex="1" parent="1">
          <mxGeometry x="455" y="740" width="60" height="30" as="geometry" />
        </mxCell>
        <mxCell id="h236lsH5lbyxZkUIFy6G-32" value="" style="edgeStyle=orthogonalEdgeStyle;rounded=0;orthogonalLoop=1;jettySize=auto;html=1;" edge="1" parent="1" source="h236lsH5lbyxZkUIFy6G-28" target="h236lsH5lbyxZkUIFy6G-31">
          <mxGeometry relative="1" as="geometry" />
        </mxCell>
        <mxCell id="h236lsH5lbyxZkUIFy6G-46" style="edgeStyle=orthogonalEdgeStyle;rounded=0;orthogonalLoop=1;jettySize=auto;html=1;entryX=0.5;entryY=0;entryDx=0;entryDy=0;" edge="1" parent="1" source="h236lsH5lbyxZkUIFy6G-28" target="h236lsH5lbyxZkUIFy6G-40">
          <mxGeometry relative="1" as="geometry" />
        </mxCell>
        <mxCell id="h236lsH5lbyxZkUIFy6G-28" value="&lt;font style=&quot;font-size: 16px;&quot;&gt;mainsku是否&lt;/font&gt;&lt;div&gt;&lt;font style=&quot;font-size: 16px;&quot;&gt;有加购日志？&lt;/font&gt;&lt;/div&gt;" style="rhombus;whiteSpace=wrap;html=1;" vertex="1" parent="1">
          <mxGeometry x="522" y="850" width="160" height="80" as="geometry" />
        </mxCell>
        <mxCell id="h236lsH5lbyxZkUIFy6G-35" style="edgeStyle=orthogonalEdgeStyle;rounded=0;orthogonalLoop=1;jettySize=auto;html=1;" edge="1" parent="1" source="h236lsH5lbyxZkUIFy6G-31" target="h236lsH5lbyxZkUIFy6G-34">
          <mxGeometry relative="1" as="geometry" />
        </mxCell>
        <mxCell id="h236lsH5lbyxZkUIFy6G-37" style="edgeStyle=orthogonalEdgeStyle;rounded=0;orthogonalLoop=1;jettySize=auto;html=1;entryX=0.5;entryY=0;entryDx=0;entryDy=0;" edge="1" parent="1" source="h236lsH5lbyxZkUIFy6G-31" target="h236lsH5lbyxZkUIFy6G-36">
          <mxGeometry relative="1" as="geometry" />
        </mxCell>
        <mxCell id="h236lsH5lbyxZkUIFy6G-31" value="&lt;font style=&quot;font-size: 16px;&quot;&gt;渠道cookie&lt;/font&gt;&lt;div&gt;&lt;font style=&quot;font-size: 16px;&quot;&gt;是否在有效期？&lt;/font&gt;&lt;/div&gt;" style="rhombus;whiteSpace=wrap;html=1;" vertex="1" parent="1">
          <mxGeometry x="522" y="970" width="160" height="80" as="geometry" />
        </mxCell>
        <mxCell id="h236lsH5lbyxZkUIFy6G-33" value="是" style="text;html=1;align=center;verticalAlign=middle;whiteSpace=wrap;rounded=0;fontSize=16;" vertex="1" parent="1">
          <mxGeometry x="542" y="930" width="60" height="30" as="geometry" />
        </mxCell>
        <mxCell id="h236lsH5lbyxZkUIFy6G-34" value="该sku的GMV归属加购中的渠道" style="rounded=0;whiteSpace=wrap;html=1;fontSize=16;" vertex="1" parent="1">
          <mxGeometry x="527" y="1100" width="150" height="60" as="geometry" />
        </mxCell>
        <mxCell id="h236lsH5lbyxZkUIFy6G-36" value="该sku的GMV归属直接流量" style="rounded=0;whiteSpace=wrap;html=1;fontSize=16;" vertex="1" parent="1">
          <mxGeometry x="702" y="1100" width="150" height="60" as="geometry" />
        </mxCell>
        <mxCell id="h236lsH5lbyxZkUIFy6G-38" value="否" style="text;html=1;align=center;verticalAlign=middle;whiteSpace=wrap;rounded=0;fontSize=16;" vertex="1" parent="1">
          <mxGeometry x="682" y="980" width="60" height="30" as="geometry" />
        </mxCell>
        <mxCell id="h236lsH5lbyxZkUIFy6G-39" value="是" style="text;html=1;align=center;verticalAlign=middle;whiteSpace=wrap;rounded=0;fontSize=16;" vertex="1" parent="1">
          <mxGeometry x="542" y="1060" width="60" height="30" as="geometry" />
        </mxCell>
        <mxCell id="h236lsH5lbyxZkUIFy6G-48" style="edgeStyle=orthogonalEdgeStyle;rounded=0;orthogonalLoop=1;jettySize=auto;html=1;entryX=0.5;entryY=0;entryDx=0;entryDy=0;" edge="1" parent="1" source="h236lsH5lbyxZkUIFy6G-40" target="h236lsH5lbyxZkUIFy6G-47">
          <mxGeometry relative="1" as="geometry" />
        </mxCell>
        <mxCell id="h236lsH5lbyxZkUIFy6G-40" value="&lt;font style=&quot;font-size: 16px;&quot;&gt;订单日志渠道cookie&lt;/font&gt;&lt;div&gt;&lt;font style=&quot;font-size: 16px;&quot;&gt;是否在有效期？&lt;/font&gt;&lt;/div&gt;" style="rhombus;whiteSpace=wrap;html=1;" vertex="1" parent="1">
          <mxGeometry x="899" y="970" width="160" height="80" as="geometry" />
        </mxCell>
        <mxCell id="h236lsH5lbyxZkUIFy6G-43" value="否" style="text;html=1;align=center;verticalAlign=middle;whiteSpace=wrap;rounded=0;fontSize=16;" vertex="1" parent="1">
          <mxGeometry x="682" y="860" width="60" height="30" as="geometry" />
        </mxCell>
        <mxCell id="h236lsH5lbyxZkUIFy6G-47" value="该sku的GMV归属订单日志中的渠道" style="rounded=0;whiteSpace=wrap;html=1;fontSize=16;" vertex="1" parent="1">
          <mxGeometry x="904" y="1100" width="150" height="60" as="geometry" />
        </mxCell>
        <mxCell id="h236lsH5lbyxZkUIFy6G-49" value="是" style="text;html=1;align=center;verticalAlign=middle;whiteSpace=wrap;rounded=0;fontSize=16;" vertex="1" parent="1">
          <mxGeometry x="919" y="1060" width="60" height="30" as="geometry" />
        </mxCell>
        <mxCell id="h236lsH5lbyxZkUIFy6G-50" value="该sku的GMV归属直接流量" style="rounded=0;whiteSpace=wrap;html=1;fontSize=16;" vertex="1" parent="1">
          <mxGeometry x="1069" y="1100" width="150" height="60" as="geometry" />
        </mxCell>
        <mxCell id="h236lsH5lbyxZkUIFy6G-51" style="edgeStyle=orthogonalEdgeStyle;rounded=0;orthogonalLoop=1;jettySize=auto;html=1;entryX=0.5;entryY=-0.1;entryDx=0;entryDy=0;entryPerimeter=0;" edge="1" parent="1" source="h236lsH5lbyxZkUIFy6G-40" target="h236lsH5lbyxZkUIFy6G-50">
          <mxGeometry relative="1" as="geometry" />
        </mxCell>
        <mxCell id="h236lsH5lbyxZkUIFy6G-52" value="否" style="text;html=1;align=center;verticalAlign=middle;whiteSpace=wrap;rounded=0;fontSize=16;" vertex="1" parent="1">
          <mxGeometry x="1054" y="980" width="60" height="30" as="geometry" />
        </mxCell>
        <mxCell id="h236lsH5lbyxZkUIFy6G-78" value="" style="edgeStyle=orthogonalEdgeStyle;rounded=0;orthogonalLoop=1;jettySize=auto;html=1;" edge="1" parent="1" source="h236lsH5lbyxZkUIFy6G-53" target="h236lsH5lbyxZkUIFy6G-54">
          <mxGeometry relative="1" as="geometry" />
        </mxCell>
        <mxCell id="h236lsH5lbyxZkUIFy6G-53" value="&lt;font style=&quot;font-size: 16px;&quot;&gt;开始&lt;/font&gt;" style="strokeWidth=1;html=1;shape=mxgraph.flowchart.terminator;whiteSpace=wrap;" vertex="1" parent="1">
          <mxGeometry x="1099" y="545" width="120" height="40" as="geometry" />
        </mxCell>
        <mxCell id="h236lsH5lbyxZkUIFy6G-58" style="edgeStyle=orthogonalEdgeStyle;rounded=0;orthogonalLoop=1;jettySize=auto;html=1;entryX=0;entryY=0.5;entryDx=0;entryDy=0;" edge="1" parent="1" source="h236lsH5lbyxZkUIFy6G-54" target="h236lsH5lbyxZkUIFy6G-55">
          <mxGeometry relative="1" as="geometry" />
        </mxCell>
        <mxCell id="h236lsH5lbyxZkUIFy6G-59" style="edgeStyle=orthogonalEdgeStyle;rounded=0;orthogonalLoop=1;jettySize=auto;html=1;entryX=0;entryY=0.5;entryDx=0;entryDy=0;" edge="1" parent="1" source="h236lsH5lbyxZkUIFy6G-54" target="h236lsH5lbyxZkUIFy6G-56">
          <mxGeometry relative="1" as="geometry" />
        </mxCell>
        <mxCell id="h236lsH5lbyxZkUIFy6G-54" value="&lt;font style=&quot;font-size: 16px;&quot;&gt;实物or虚拟订单？&lt;/font&gt;" style="rhombus;whiteSpace=wrap;html=1;" vertex="1" parent="1">
          <mxGeometry x="1246" y="525" width="170" height="80" as="geometry" />
        </mxCell>
        <mxCell id="h236lsH5lbyxZkUIFy6G-77" value="" style="edgeStyle=orthogonalEdgeStyle;rounded=0;orthogonalLoop=1;jettySize=auto;html=1;" edge="1" parent="1" source="h236lsH5lbyxZkUIFy6G-55" target="h236lsH5lbyxZkUIFy6G-60">
          <mxGeometry relative="1" as="geometry" />
        </mxCell>
        <mxCell id="h236lsH5lbyxZkUIFy6G-55" value="实物订单" style="rounded=0;whiteSpace=wrap;html=1;fontSize=16;" vertex="1" parent="1">
          <mxGeometry x="1456" y="465" width="150" height="60" as="geometry" />
        </mxCell>
        <mxCell id="h236lsH5lbyxZkUIFy6G-67" style="edgeStyle=orthogonalEdgeStyle;rounded=0;orthogonalLoop=1;jettySize=auto;html=1;" edge="1" parent="1" source="h236lsH5lbyxZkUIFy6G-56" target="h236lsH5lbyxZkUIFy6G-66">
          <mxGeometry relative="1" as="geometry" />
        </mxCell>
        <mxCell id="h236lsH5lbyxZkUIFy6G-56" value="虚拟订单" style="rounded=0;whiteSpace=wrap;html=1;fontSize=16;" vertex="1" parent="1">
          <mxGeometry x="1456" y="620" width="150" height="60" as="geometry" />
        </mxCell>
        <mxCell id="h236lsH5lbyxZkUIFy6G-64" value="" style="edgeStyle=orthogonalEdgeStyle;rounded=0;orthogonalLoop=1;jettySize=auto;html=1;" edge="1" parent="1" source="h236lsH5lbyxZkUIFy6G-60" target="h236lsH5lbyxZkUIFy6G-62">
          <mxGeometry relative="1" as="geometry" />
        </mxCell>
        <mxCell id="h236lsH5lbyxZkUIFy6G-68" style="edgeStyle=orthogonalEdgeStyle;rounded=0;orthogonalLoop=1;jettySize=auto;html=1;" edge="1" parent="1" source="h236lsH5lbyxZkUIFy6G-60">
          <mxGeometry relative="1" as="geometry">
            <mxPoint x="1725" y="650" as="targetPoint" />
          </mxGeometry>
        </mxCell>
        <mxCell id="h236lsH5lbyxZkUIFy6G-60" value="&lt;font style=&quot;font-size: 16px;&quot;&gt;mainsku下单前3天&lt;/font&gt;&lt;div&gt;&lt;font style=&quot;font-size: 16px;&quot;&gt;是否有点击加购？&lt;/font&gt;&lt;/div&gt;" style="rhombus;whiteSpace=wrap;html=1;" vertex="1" parent="1">
          <mxGeometry x="1640" y="455" width="170" height="80" as="geometry" />
        </mxCell>
        <mxCell id="h236lsH5lbyxZkUIFy6G-65" value="" style="edgeStyle=orthogonalEdgeStyle;rounded=0;orthogonalLoop=1;jettySize=auto;html=1;" edge="1" parent="1" source="h236lsH5lbyxZkUIFy6G-62" target="h236lsH5lbyxZkUIFy6G-63">
          <mxGeometry relative="1" as="geometry" />
        </mxCell>
        <mxCell id="h236lsH5lbyxZkUIFy6G-69" style="edgeStyle=orthogonalEdgeStyle;rounded=0;orthogonalLoop=1;jettySize=auto;html=1;" edge="1" parent="1" source="h236lsH5lbyxZkUIFy6G-62">
          <mxGeometry relative="1" as="geometry">
            <mxPoint x="1955" y="650" as="targetPoint" />
          </mxGeometry>
        </mxCell>
        <mxCell id="h236lsH5lbyxZkUIFy6G-62" value="&lt;span style=&quot;font-size: 16px;&quot;&gt;点击加购是否有效？&lt;/span&gt;" style="rhombus;whiteSpace=wrap;html=1;" vertex="1" parent="1">
          <mxGeometry x="1870" y="455" width="170" height="80" as="geometry" />
        </mxCell>
        <mxCell id="h236lsH5lbyxZkUIFy6G-63" value="末次加购JDV渠道" style="rounded=0;whiteSpace=wrap;html=1;fontSize=16;" vertex="1" parent="1">
          <mxGeometry x="2080" y="465" width="150" height="60" as="geometry" />
        </mxCell>
        <mxCell id="h236lsH5lbyxZkUIFy6G-66" value="订单日志JDV渠道" style="rounded=0;whiteSpace=wrap;html=1;fontSize=16;" vertex="1" parent="1">
          <mxGeometry x="2080" y="620" width="150" height="60" as="geometry" />
        </mxCell>
        <mxCell id="h236lsH5lbyxZkUIFy6G-70" value="否" style="text;html=1;align=center;verticalAlign=middle;whiteSpace=wrap;rounded=0;fontSize=16;" vertex="1" parent="1">
          <mxGeometry x="1720" y="545" width="60" height="30" as="geometry" />
        </mxCell>
        <mxCell id="h236lsH5lbyxZkUIFy6G-71" value="否" style="text;html=1;align=center;verticalAlign=middle;whiteSpace=wrap;rounded=0;fontSize=16;" vertex="1" parent="1">
          <mxGeometry x="1960" y="545" width="60" height="30" as="geometry" />
        </mxCell>
        <mxCell id="h236lsH5lbyxZkUIFy6G-72" value="是" style="text;html=1;align=center;verticalAlign=middle;whiteSpace=wrap;rounded=0;fontSize=16;" vertex="1" parent="1">
          <mxGeometry x="1790" y="465" width="60" height="30" as="geometry" />
        </mxCell>
        <mxCell id="h236lsH5lbyxZkUIFy6G-73" value="是" style="text;html=1;align=center;verticalAlign=middle;whiteSpace=wrap;rounded=0;fontSize=16;" vertex="1" parent="1">
          <mxGeometry x="2030" y="465" width="60" height="30" as="geometry" />
        </mxCell>
        <mxCell id="h236lsH5lbyxZkUIFy6G-74" value="&lt;font style=&quot;font-size: 16px;&quot;&gt;结束&lt;/font&gt;" style="strokeWidth=1;html=1;shape=mxgraph.flowchart.terminator;whiteSpace=wrap;" vertex="1" parent="1">
          <mxGeometry x="2250" y="545" width="120" height="40" as="geometry" />
        </mxCell>
        <mxCell id="h236lsH5lbyxZkUIFy6G-75" style="edgeStyle=orthogonalEdgeStyle;rounded=0;orthogonalLoop=1;jettySize=auto;html=1;entryX=0.5;entryY=1;entryDx=0;entryDy=0;entryPerimeter=0;" edge="1" parent="1" source="h236lsH5lbyxZkUIFy6G-66" target="h236lsH5lbyxZkUIFy6G-74">
          <mxGeometry relative="1" as="geometry" />
        </mxCell>
        <mxCell id="h236lsH5lbyxZkUIFy6G-76" style="edgeStyle=orthogonalEdgeStyle;rounded=0;orthogonalLoop=1;jettySize=auto;html=1;entryX=0.5;entryY=0;entryDx=0;entryDy=0;entryPerimeter=0;" edge="1" parent="1" source="h236lsH5lbyxZkUIFy6G-63" target="h236lsH5lbyxZkUIFy6G-74">
          <mxGeometry relative="1" as="geometry" />
        </mxCell>
      </root>
    </mxGraphModel>
  </diagram>
</mxfile>
